<svg xmlns="http://www.w3.org/2000/svg" viewBox="0 0 800 600">
    <rect x="10" y="10" width="780" height="580" fill="#f0f0f0" stroke="#000000" stroke-width="2"/>
    <text x="400" y="40" font-family="Arial" font-size="20" text-anchor="middle">otus-micro</text>

    <!-- Nginx Ingress -->
    <rect x="50" y="70" width="120" height="60" fill="#8cc4d3" stroke="#000000" stroke-width="2"/>
    <text x="110" y="105" font-family="Arial" font-size="14" text-anchor="middle">Nginx Ingress</text>

    <!-- Controllers -->
    <rect x="250" y="150" width="120" height="60" fill="#b3d9ff" stroke="#000000" stroke-width="2"/>
    <text x="310" y="185" font-family="Arial" font-size="14" text-anchor="middle">UserController</text>

    <!-- Security -->
    <rect x="450" y="70" width="120" height="60" fill="#ffd966" stroke="#000000" stroke-width="2"/>
    <text x="510" y="105" font-family="Arial" font-size="14" text-anchor="middle">SecurityFilter</text>

    <rect x="450" y="150" width="120" height="60" fill="#ffd966" stroke="#000000" stroke-width="2"/>
    <text x="510" y="185" font-family="Arial" font-size="14" text-anchor="middle">UserAuthenticationProvider</text>

    <!-- Services -->
    <rect x="250" y="250" width="120" height="60" fill="#d9ead3" stroke="#000000" stroke-width="2"/>
    <text x="310" y="285" font-family="Arial" font-size="14" text-anchor="middle">UserService</text>

    <!-- Repositories -->
    <rect x="250" y="350" width="120" height="60" fill="#fff2cc" stroke="#000000" stroke-width="2"/>
    <text x="310" y="385" font-family="Arial" font-size="14" text-anchor="middle">UserRepository</text>

    <!-- Database -->
    <rect x="250" y="450" width="120" height="60" fill="#d9d2e9" stroke="#000000" stroke-width="2"/>
    <text x="310" y="485" font-family="Arial" font-size="14" text-anchor="middle">PostgreSQL</text>

    <!-- Arrows -->
    <line x1="170" y1="100" x2="250" y2="180" stroke="#000000" stroke-width="2" marker-end="url(#arrowhead)"/>
    <line x1="370" y1="180" x2="450" y2="100" stroke="#000000" stroke-width="2" marker-end="url(#arrowhead)"/>
    <line x1="510" y1="130" x2="510" y2="150" stroke="#000000" stroke-width="2" marker-end="url(#arrowhead)"/>
    <line x1="310" y1="210" x2="310" y2="250" stroke="#000000" stroke-width="2" marker-end="url(#arrowhead)"/>
    <line x1="310" y1="310" x2="310" y2="350" stroke="#000000" stroke-width="2" marker-end="url(#arrowhead)"/>
    <line x1="310" y1="410" x2="310" y2="450" stroke="#000000" stroke-width="2" marker-end="url(#arrowhead)"/>

    <!-- Arrow definition -->
    <defs>
        <marker id="arrowhead" markerWidth="10" markerHeight="7" refX="0" refY="3.5" orient="auto">
            <polygon points="0 0, 10 3.5, 0 7" />
        </marker>
    </defs>
</svg>